<svg xmlns="http://www.w3.org/2000/svg" viewBox="0 0 1024 1024" fill="none" role="img" aria-label="Relational Protector Reflective Portrait">
  <defs>
    <filter id="softShadow" x="-20%" y="-20%" width="140%" height="140%">
      <feDropShadow dx="0" dy="14" stdDeviation="16" flood-color="#b7a48c" flood-opacity=".18"/>
    </filter>
  </defs>
  <rect width="1024" height="1024" rx="38" fill="#f6efe2"/>
  <path d="M88 151c142-58 272-71 414-38 136 31 252 10 429-34" stroke="#eadfca" stroke-width="36" stroke-linecap="round" opacity=".34"/>
  <path d="M82 851c162 35 298 29 428-15 149-51 268-37 423 20" stroke="#c6d2bd" stroke-width="42" stroke-linecap="round" opacity=".26"/>
  <circle cx="814" cy="582" r="2.5" fill="#d4c5aa" opacity=".22"/>
    <circle cx="951" cy="673" r="3.05" fill="#d4c5aa" opacity=".22"/>
    <circle cx="208" cy="764" r="1.4" fill="#d4c5aa" opacity=".22"/>
    <circle cx="345" cy="855" r="1.95" fill="#d4c5aa" opacity=".22"/>
    <circle cx="482" cy="106" r="2.5" fill="#d4c5aa" opacity=".22"/>
    <circle cx="619" cy="197" r="3.05" fill="#d4c5aa" opacity=".22"/>
    <circle cx="756" cy="288" r="1.4" fill="#d4c5aa" opacity=".22"/>
    <circle cx="893" cy="379" r="1.95" fill="#d4c5aa" opacity=".22"/>
    <circle cx="150" cy="470" r="2.5" fill="#d4c5aa" opacity=".22"/>
    <circle cx="287" cy="561" r="3.05" fill="#d4c5aa" opacity=".22"/>
    <circle cx="424" cy="652" r="1.4" fill="#d4c5aa" opacity=".22"/>
    <circle cx="561" cy="743" r="1.95" fill="#d4c5aa" opacity=".22"/>
    <circle cx="698" cy="834" r="2.5" fill="#d4c5aa" opacity=".22"/>
    <circle cx="835" cy="85" r="3.05" fill="#d4c5aa" opacity=".22"/>
    <circle cx="92" cy="176" r="1.4" fill="#d4c5aa" opacity=".22"/>
    <circle cx="229" cy="267" r="1.95" fill="#d4c5aa" opacity=".22"/>
    <circle cx="366" cy="358" r="2.5" fill="#d4c5aa" opacity=".22"/>
    <circle cx="503" cy="449" r="3.05" fill="#d4c5aa" opacity=".22"/>
  <g filter="url(#softShadow)">
    <ellipse cx="512" cy="856" rx="268" ry="40" fill="#d8c7aa" opacity=".34"/>
    <path d="M287 694c13-132 90-220 202-220h46c116 0 194 89 207 220l18 159H269l18-159z" fill="#c6d2bd" stroke="#56483d" stroke-width="8" stroke-linejoin="round"/>
    <g transform="translate(499 338) scale(1.56)">
    <path d="M-55-76c35-42 113-24 123 32 11 59-35 109-91 98-52-10-67-79-32-130z" fill="#eed4bd" stroke="#56483d" stroke-width="7" stroke-linejoin="round"/>
    <path d="M-58-66c11-49 84-74 126-25 22 25 22 56 12 79-21-34-68-34-104-24-11 3-26-8-34-30z" fill="#705c4b" stroke="#56483d" stroke-width="7" stroke-linejoin="round"/>
    <path d="M-20-74c-11 23-29 33-50 35" stroke="#56483d" stroke-width="5" stroke-linecap="round" opacity=".65"/>
    <path d="M8-73c-10 20-26 30-47 34" stroke="#56483d" stroke-width="5" stroke-linecap="round" opacity=".65"/>
    <circle cx="14" cy="-18" r="5.5" fill="#56483d"/>
    <path d="M31 1c8 9 18 12 30 9" stroke="#56483d" stroke-width="4" stroke-linecap="round"/>
    <path d="M8 25c19 12 39 10 55-4" stroke="#56483d" stroke-width="4" stroke-linecap="round" opacity=".72"/>
  </g>
    <path d="M386 612c47 33 76 68 98 124" stroke="#56483d" stroke-width="8" stroke-linecap="round" opacity=".54"/>
    <path d="M630 605c-42 32-70 69-90 131" stroke="#56483d" stroke-width="8" stroke-linecap="round" opacity=".54"/>
    <path d="M334 700c-61 35-86 76-75 122" stroke="#56483d" stroke-width="12" stroke-linecap="round"/>
    <path d="M680 700c62 35 88 76 77 122" stroke="#56483d" stroke-width="12" stroke-linecap="round"/>
    <circle cx="261" cy="821" r="18" fill="#eed4bd" stroke="#56483d" stroke-width="6"/>
    <circle cx="756" cy="821" r="18" fill="#eed4bd" stroke="#56483d" stroke-width="6"/>
    <g transform="translate(506 686) scale(1.28)"><g><path d="M-124 68c39-71 84-106 124-106s85 35 124 106" fill="#c6d2bd" stroke="#56483d" stroke-width="6" stroke-linejoin="round"/><path d="M-99 68c34-42 67-63 99-63s65 21 99 63" stroke="#56483d" stroke-width="6" stroke-linecap="round" stroke-linejoin="round"/><path d="M-118 108H118M-70 68v40M0 6v102M70 68v40" stroke="#56483d" stroke-width="6" stroke-linecap="round" stroke-linejoin="round"/><path d="M-26-68c12-18 39-18 52 0 14-18 42-13 49 8 8 29-35 54-75 82-40-28-83-53-75-82 7-21 35-26 49-8z" fill="#78906f" stroke="#56483d" stroke-width="6" stroke-linejoin="round"/></g></g>
  </g>
</svg>
