<svg xmlns="http://www.w3.org/2000/svg" viewBox="0 0 1024 1024" fill="none" role="img" aria-label="Care-Centered Pragmatist Reflective Portrait">
  <defs>
    <filter id="softShadow" x="-20%" y="-20%" width="140%" height="140%">
      <feDropShadow dx="0" dy="14" stdDeviation="16" flood-color="#b7a48c" flood-opacity=".18"/>
    </filter>
  </defs>
  <rect width="1024" height="1024" rx="38" fill="#f6efe2"/>
  <path d="M88 151c142-58 272-71 414-38 136 31 252 10 429-34" stroke="#eadfca" stroke-width="36" stroke-linecap="round" opacity=".34"/>
  <path d="M82 851c162 35 298 29 428-15 149-51 268-37 423 20" stroke="#c9d5bc" stroke-width="42" stroke-linecap="round" opacity=".26"/>
  <circle cx="655" cy="471" r="3.05" fill="#d4c5aa" opacity=".22"/>
    <circle cx="792" cy="562" r="1.4" fill="#d4c5aa" opacity=".22"/>
    <circle cx="929" cy="653" r="1.95" fill="#d4c5aa" opacity=".22"/>
    <circle cx="186" cy="744" r="2.5" fill="#d4c5aa" opacity=".22"/>
    <circle cx="323" cy="835" r="3.05" fill="#d4c5aa" opacity=".22"/>
    <circle cx="460" cy="86" r="1.4" fill="#d4c5aa" opacity=".22"/>
    <circle cx="597" cy="177" r="1.95" fill="#d4c5aa" opacity=".22"/>
    <circle cx="734" cy="268" r="2.5" fill="#d4c5aa" opacity=".22"/>
    <circle cx="871" cy="359" r="3.05" fill="#d4c5aa" opacity=".22"/>
    <circle cx="128" cy="450" r="1.4" fill="#d4c5aa" opacity=".22"/>
    <circle cx="265" cy="541" r="1.95" fill="#d4c5aa" opacity=".22"/>
    <circle cx="402" cy="632" r="2.5" fill="#d4c5aa" opacity=".22"/>
    <circle cx="539" cy="723" r="3.05" fill="#d4c5aa" opacity=".22"/>
    <circle cx="676" cy="814" r="1.4" fill="#d4c5aa" opacity=".22"/>
    <circle cx="813" cy="65" r="1.95" fill="#d4c5aa" opacity=".22"/>
    <circle cx="950" cy="156" r="2.5" fill="#d4c5aa" opacity=".22"/>
    <circle cx="207" cy="247" r="3.05" fill="#d4c5aa" opacity=".22"/>
    <circle cx="344" cy="338" r="1.4" fill="#d4c5aa" opacity=".22"/>
  <g filter="url(#softShadow)">
    <ellipse cx="512" cy="856" rx="268" ry="40" fill="#d8c7aa" opacity=".34"/>
    <path d="M287 694c13-132 90-220 202-220h46c116 0 194 89 207 220l18 159H269l18-159z" fill="#c9d5bc" stroke="#56483d" stroke-width="8" stroke-linejoin="round"/>
    <g transform="translate(499 338) scale(1.56)">
    <path d="M-55-76c35-42 113-24 123 32 11 59-35 109-91 98-52-10-67-79-32-130z" fill="#eed4bd" stroke="#56483d" stroke-width="7" stroke-linejoin="round"/>
    <path d="M-58-66c11-49 84-74 126-25 22 25 22 56 12 79-21-34-68-34-104-24-11 3-26-8-34-30z" fill="#7a6552" stroke="#56483d" stroke-width="7" stroke-linejoin="round"/>
    <path d="M-20-74c-11 23-29 33-50 35" stroke="#56483d" stroke-width="5" stroke-linecap="round" opacity=".65"/>
    <path d="M8-73c-10 20-26 30-47 34" stroke="#56483d" stroke-width="5" stroke-linecap="round" opacity=".65"/>
    <circle cx="14" cy="-18" r="5.5" fill="#56483d"/>
    <path d="M31 1c8 9 18 12 30 9" stroke="#56483d" stroke-width="4" stroke-linecap="round"/>
    <path d="M8 25c19 12 39 10 55-4" stroke="#56483d" stroke-width="4" stroke-linecap="round" opacity=".72"/>
  </g>
    <path d="M386 612c47 33 76 68 98 124" stroke="#56483d" stroke-width="8" stroke-linecap="round" opacity=".54"/>
    <path d="M630 605c-42 32-70 69-90 131" stroke="#56483d" stroke-width="8" stroke-linecap="round" opacity=".54"/>
    <path d="M334 700c-61 35-86 76-75 122" stroke="#56483d" stroke-width="12" stroke-linecap="round"/>
    <path d="M680 700c62 35 88 76 77 122" stroke="#56483d" stroke-width="12" stroke-linecap="round"/>
    <circle cx="261" cy="821" r="18" fill="#eed4bd" stroke="#56483d" stroke-width="6"/>
    <circle cx="756" cy="821" r="18" fill="#eed4bd" stroke="#56483d" stroke-width="6"/>
    <g transform="translate(506 686) scale(1.28)"><g><path d="M-104 26c37-48 91-50 125 0 34-50 88-48 125 0-32 57-76 89-125 118-49-29-93-61-125-118z" fill="#8d9d7d" opacity=".6" stroke="#56483d" stroke-width="6" stroke-linejoin="round"/><path d="M-55-82h110v78H-55z" fill="#fff8ea" stroke="#56483d" stroke-width="6" stroke-linejoin="round"/><path d="M0-62v37M-19-43h38" stroke="#56483d" stroke-width="6" stroke-linecap="round" stroke-linejoin="round"/></g></g>
  </g>
</svg>
