<svg xmlns="http://www.w3.org/2000/svg" viewBox="0 0 1024 1024" fill="none" role="img" aria-label="Civic Guardian Reflective Portrait">
  <defs>
    <filter id="softShadow" x="-20%" y="-20%" width="140%" height="140%">
      <feDropShadow dx="0" dy="14" stdDeviation="16" flood-color="#b7a48c" flood-opacity=".18"/>
    </filter>
  </defs>
  <rect width="1024" height="1024" rx="38" fill="#f6efe2"/>
  <path d="M88 151c142-58 272-71 414-38 136 31 252 10 429-34" stroke="#eadfca" stroke-width="36" stroke-linecap="round" opacity=".34"/>
  <path d="M82 851c162 35 298 29 428-15 149-51 268-37 423 20" stroke="#dbc2aa" stroke-width="42" stroke-linecap="round" opacity=".26"/>
  <circle cx="496" cy="360" r="1.4" fill="#d4c5aa" opacity=".22"/>
    <circle cx="633" cy="451" r="1.95" fill="#d4c5aa" opacity=".22"/>
    <circle cx="770" cy="542" r="2.5" fill="#d4c5aa" opacity=".22"/>
    <circle cx="907" cy="633" r="3.05" fill="#d4c5aa" opacity=".22"/>
    <circle cx="164" cy="724" r="1.4" fill="#d4c5aa" opacity=".22"/>
    <circle cx="301" cy="815" r="1.95" fill="#d4c5aa" opacity=".22"/>
    <circle cx="438" cy="66" r="2.5" fill="#d4c5aa" opacity=".22"/>
    <circle cx="575" cy="157" r="3.05" fill="#d4c5aa" opacity=".22"/>
    <circle cx="712" cy="248" r="1.4" fill="#d4c5aa" opacity=".22"/>
    <circle cx="849" cy="339" r="1.95" fill="#d4c5aa" opacity=".22"/>
    <circle cx="106" cy="430" r="2.5" fill="#d4c5aa" opacity=".22"/>
    <circle cx="243" cy="521" r="3.05" fill="#d4c5aa" opacity=".22"/>
    <circle cx="380" cy="612" r="1.4" fill="#d4c5aa" opacity=".22"/>
    <circle cx="517" cy="703" r="1.95" fill="#d4c5aa" opacity=".22"/>
    <circle cx="654" cy="794" r="2.5" fill="#d4c5aa" opacity=".22"/>
    <circle cx="791" cy="885" r="3.05" fill="#d4c5aa" opacity=".22"/>
    <circle cx="928" cy="136" r="1.4" fill="#d4c5aa" opacity=".22"/>
    <circle cx="185" cy="227" r="1.95" fill="#d4c5aa" opacity=".22"/>
  <g filter="url(#softShadow)">
    <ellipse cx="512" cy="856" rx="268" ry="40" fill="#d8c7aa" opacity=".34"/>
    <path d="M287 694c13-132 90-220 202-220h46c116 0 194 89 207 220l18 159H269l18-159z" fill="#dbc2aa" stroke="#56483d" stroke-width="8" stroke-linejoin="round"/>
    <g transform="translate(499 338) scale(1.56)">
    <path d="M-55-76c35-42 113-24 123 32 11 59-35 109-91 98-52-10-67-79-32-130z" fill="#eed4bd" stroke="#56483d" stroke-width="7" stroke-linejoin="round"/>
    <path d="M-58-66c11-49 84-74 126-25 22 25 22 56 12 79-21-34-68-34-104-24-11 3-26-8-34-30z" fill="#5f5246" stroke="#56483d" stroke-width="7" stroke-linejoin="round"/>
    <path d="M-20-74c-11 23-29 33-50 35" stroke="#56483d" stroke-width="5" stroke-linecap="round" opacity=".65"/>
    <path d="M8-73c-10 20-26 30-47 34" stroke="#56483d" stroke-width="5" stroke-linecap="round" opacity=".65"/>
    <circle cx="14" cy="-18" r="5.5" fill="#56483d"/>
    <path d="M31 1c8 9 18 12 30 9" stroke="#56483d" stroke-width="4" stroke-linecap="round"/>
    <path d="M8 25c19 12 39 10 55-4" stroke="#56483d" stroke-width="4" stroke-linecap="round" opacity=".72"/>
  </g>
    <path d="M386 612c47 33 76 68 98 124" stroke="#56483d" stroke-width="8" stroke-linecap="round" opacity=".54"/>
    <path d="M630 605c-42 32-70 69-90 131" stroke="#56483d" stroke-width="8" stroke-linecap="round" opacity=".54"/>
    <path d="M334 700c-61 35-86 76-75 122" stroke="#56483d" stroke-width="12" stroke-linecap="round"/>
    <path d="M680 700c62 35 88 76 77 122" stroke="#56483d" stroke-width="12" stroke-linecap="round"/>
    <circle cx="261" cy="821" r="18" fill="#eed4bd" stroke="#56483d" stroke-width="6"/>
    <circle cx="756" cy="821" r="18" fill="#eed4bd" stroke="#56483d" stroke-width="6"/>
    <g transform="translate(506 686) scale(1.28)"><g><path d="M0-106c43 31 83 40 122 43-3 94-45 151-122 178-77-27-119-84-122-178 39-3 79-12 122-43z" fill="#a86f61" stroke="#56483d" stroke-width="6" stroke-linejoin="round"/><path d="M0-63v134M-48 5h96" stroke="#56483d" stroke-width="6" stroke-linecap="round" stroke-linejoin="round"/><path d="M-89 111h178" stroke="#56483d" stroke-width="6" stroke-linecap="round" stroke-linejoin="round"/></g></g>
  </g>
</svg>
