<svg xmlns="http://www.w3.org/2000/svg" viewBox="0 0 1024 1024" fill="none" role="img" aria-label="Freedom-First Humanist Quiet Walk">
  <defs>
    <filter id="softShadow" x="-20%" y="-20%" width="140%" height="140%">
      <feDropShadow dx="0" dy="14" stdDeviation="16" flood-color="#b7a48c" flood-opacity=".18"/>
    </filter>
  </defs>
  <rect width="1024" height="1024" rx="38" fill="#f6efe2"/>
  <path d="M88 151c142-58 272-71 414-38 136 31 252 10 429-34" stroke="#eadfca" stroke-width="36" stroke-linecap="round" opacity=".34"/>
  <path d="M82 851c162 35 298 29 428-15 149-51 268-37 423 20" stroke="#ecd6a5" stroke-width="42" stroke-linecap="round" opacity=".26"/>
  <circle cx="920" cy="656" r="1.4" fill="#d4c5aa" opacity=".22"/>
    <circle cx="177" cy="747" r="1.95" fill="#d4c5aa" opacity=".22"/>
    <circle cx="314" cy="838" r="2.5" fill="#d4c5aa" opacity=".22"/>
    <circle cx="451" cy="89" r="3.05" fill="#d4c5aa" opacity=".22"/>
    <circle cx="588" cy="180" r="1.4" fill="#d4c5aa" opacity=".22"/>
    <circle cx="725" cy="271" r="1.95" fill="#d4c5aa" opacity=".22"/>
    <circle cx="862" cy="362" r="2.5" fill="#d4c5aa" opacity=".22"/>
    <circle cx="119" cy="453" r="3.05" fill="#d4c5aa" opacity=".22"/>
    <circle cx="256" cy="544" r="1.4" fill="#d4c5aa" opacity=".22"/>
    <circle cx="393" cy="635" r="1.95" fill="#d4c5aa" opacity=".22"/>
    <circle cx="530" cy="726" r="2.5" fill="#d4c5aa" opacity=".22"/>
    <circle cx="667" cy="817" r="3.05" fill="#d4c5aa" opacity=".22"/>
    <circle cx="804" cy="68" r="1.4" fill="#d4c5aa" opacity=".22"/>
    <circle cx="941" cy="159" r="1.95" fill="#d4c5aa" opacity=".22"/>
    <circle cx="198" cy="250" r="2.5" fill="#d4c5aa" opacity=".22"/>
    <circle cx="335" cy="341" r="3.05" fill="#d4c5aa" opacity=".22"/>
    <circle cx="472" cy="432" r="1.4" fill="#d4c5aa" opacity=".22"/>
    <circle cx="609" cy="523" r="1.95" fill="#d4c5aa" opacity=".22"/>
  <g filter="url(#softShadow)">
    <ellipse cx="508" cy="869" rx="238" ry="39" fill="#d8c7aa" opacity=".35"/>
    <g transform="translate(466 315) scale(1.28)">
    <path d="M-55-76c35-42 113-24 123 32 11 59-35 109-91 98-52-10-67-79-32-130z" fill="#eed4bd" stroke="#56483d" stroke-width="7" stroke-linejoin="round"/>
    <path d="M-58-66c11-49 84-74 126-25 22 25 22 56 12 79-21-34-68-34-104-24-11 3-26-8-34-30z" fill="#8a6f55" stroke="#56483d" stroke-width="7" stroke-linejoin="round"/>
    <path d="M-20-74c-11 23-29 33-50 35" stroke="#56483d" stroke-width="5" stroke-linecap="round" opacity=".65"/>
    <path d="M8-73c-10 20-26 30-47 34" stroke="#56483d" stroke-width="5" stroke-linecap="round" opacity=".65"/>
    <circle cx="14" cy="-18" r="5.5" fill="#56483d"/>
    <path d="M31 1c8 9 18 12 30 9" stroke="#56483d" stroke-width="4" stroke-linecap="round"/>
    <path d="M8 25c19 12 39 10 55-4" stroke="#56483d" stroke-width="4" stroke-linecap="round" opacity=".72"/>
  </g>
    <path d="M358 502c38-82 167-88 216-15 31 46 35 136 22 247H337c-14-93-8-171 21-232z" fill="#ecd6a5" stroke="#56483d" stroke-width="7" stroke-linejoin="round"/>
    <path d="M423 733c-18 46-25 82-28 136M532 732c21 44 31 86 35 136" stroke="#56483d" stroke-width="10" stroke-linecap="round"/>
    <path d="M373 572c-61 30-101 63-121 112" stroke="#56483d" stroke-width="11" stroke-linecap="round"/>
    <path d="M574 568c62 18 111 45 148 83" stroke="#56483d" stroke-width="11" stroke-linecap="round"/>
    <circle cx="253" cy="686" r="17" fill="#eed4bd" stroke="#56483d" stroke-width="6"/>
    <circle cx="725" cy="652" r="17" fill="#eed4bd" stroke="#56483d" stroke-width="6"/>
    <g transform="translate(710 386) scale(1.32)"><g><path d="M0-122l94 87L9 62-85-25z" fill="#d7a95f" stroke="#56483d" stroke-width="6" stroke-linejoin="round"/><path d="M0-122L9 62M-85-25l179-10" stroke="#56483d" stroke-width="6" stroke-linecap="round" stroke-linejoin="round"/><path d="M9 62c23 43 11 80-28 110" stroke="#56483d" stroke-width="6" stroke-linecap="round" stroke-linejoin="round"/><path d="M-34 102l30 9M-19 135l31 3" stroke="#56483d" stroke-width="6" stroke-linecap="round" stroke-linejoin="round"/></g></g>
  </g>
</svg>
