<svg xmlns="http://www.w3.org/2000/svg" viewBox="0 0 1024 1024" fill="none" role="img" aria-label="Meaning-Seeking Striver Reflective Portrait">
  <defs>
    <filter id="softShadow" x="-20%" y="-20%" width="140%" height="140%">
      <feDropShadow dx="0" dy="14" stdDeviation="16" flood-color="#b7a48c" flood-opacity=".18"/>
    </filter>
  </defs>
  <rect width="1024" height="1024" rx="38" fill="#f6efe2"/>
  <path d="M88 151c142-58 272-71 414-38 136 31 252 10 429-34" stroke="#eadfca" stroke-width="36" stroke-linecap="round" opacity=".34"/>
  <path d="M82 851c162 35 298 29 428-15 149-51 268-37 423 20" stroke="#ead3a2" stroke-width="42" stroke-linecap="round" opacity=".26"/>
  <circle cx="411" cy="75" r="3.05" fill="#d4c5aa" opacity=".22"/>
    <circle cx="548" cy="166" r="1.4" fill="#d4c5aa" opacity=".22"/>
    <circle cx="685" cy="257" r="1.95" fill="#d4c5aa" opacity=".22"/>
    <circle cx="822" cy="348" r="2.5" fill="#d4c5aa" opacity=".22"/>
    <circle cx="79" cy="439" r="3.05" fill="#d4c5aa" opacity=".22"/>
    <circle cx="216" cy="530" r="1.4" fill="#d4c5aa" opacity=".22"/>
    <circle cx="353" cy="621" r="1.95" fill="#d4c5aa" opacity=".22"/>
    <circle cx="490" cy="712" r="2.5" fill="#d4c5aa" opacity=".22"/>
    <circle cx="627" cy="803" r="3.05" fill="#d4c5aa" opacity=".22"/>
    <circle cx="764" cy="894" r="1.4" fill="#d4c5aa" opacity=".22"/>
    <circle cx="901" cy="145" r="1.95" fill="#d4c5aa" opacity=".22"/>
    <circle cx="158" cy="236" r="2.5" fill="#d4c5aa" opacity=".22"/>
    <circle cx="295" cy="327" r="3.05" fill="#d4c5aa" opacity=".22"/>
    <circle cx="432" cy="418" r="1.4" fill="#d4c5aa" opacity=".22"/>
    <circle cx="569" cy="509" r="1.95" fill="#d4c5aa" opacity=".22"/>
    <circle cx="706" cy="600" r="2.5" fill="#d4c5aa" opacity=".22"/>
    <circle cx="843" cy="691" r="3.05" fill="#d4c5aa" opacity=".22"/>
    <circle cx="100" cy="782" r="1.4" fill="#d4c5aa" opacity=".22"/>
  <g filter="url(#softShadow)">
    <ellipse cx="512" cy="856" rx="268" ry="40" fill="#d8c7aa" opacity=".34"/>
    <path d="M287 694c13-132 90-220 202-220h46c116 0 194 89 207 220l18 159H269l18-159z" fill="#ead3a2" stroke="#56483d" stroke-width="8" stroke-linejoin="round"/>
    <g transform="translate(499 338) scale(1.56)">
    <path d="M-55-76c35-42 113-24 123 32 11 59-35 109-91 98-52-10-67-79-32-130z" fill="#eed4bd" stroke="#56483d" stroke-width="7" stroke-linejoin="round"/>
    <path d="M-58-66c11-49 84-74 126-25 22 25 22 56 12 79-21-34-68-34-104-24-11 3-26-8-34-30z" fill="#8b735c" stroke="#56483d" stroke-width="7" stroke-linejoin="round"/>
    <path d="M-20-74c-11 23-29 33-50 35" stroke="#56483d" stroke-width="5" stroke-linecap="round" opacity=".65"/>
    <path d="M8-73c-10 20-26 30-47 34" stroke="#56483d" stroke-width="5" stroke-linecap="round" opacity=".65"/>
    <circle cx="14" cy="-18" r="5.5" fill="#56483d"/>
    <path d="M31 1c8 9 18 12 30 9" stroke="#56483d" stroke-width="4" stroke-linecap="round"/>
    <path d="M8 25c19 12 39 10 55-4" stroke="#56483d" stroke-width="4" stroke-linecap="round" opacity=".72"/>
  </g>
    <path d="M386 612c47 33 76 68 98 124" stroke="#56483d" stroke-width="8" stroke-linecap="round" opacity=".54"/>
    <path d="M630 605c-42 32-70 69-90 131" stroke="#56483d" stroke-width="8" stroke-linecap="round" opacity=".54"/>
    <path d="M334 700c-61 35-86 76-75 122" stroke="#56483d" stroke-width="12" stroke-linecap="round"/>
    <path d="M680 700c62 35 88 76 77 122" stroke="#56483d" stroke-width="12" stroke-linecap="round"/>
    <circle cx="261" cy="821" r="18" fill="#eed4bd" stroke="#56483d" stroke-width="6"/>
    <circle cx="756" cy="821" r="18" fill="#eed4bd" stroke="#56483d" stroke-width="6"/>
    <g transform="translate(506 686) scale(1.28)"><g><path d="M-130 104L-50-41 2 39 52-70 137 104z" fill="#ead3a2" stroke="#56483d" stroke-width="6" stroke-linejoin="round"/><path d="M-50-41l28 44 24-36M52-70l31 49 19-28" stroke="#56483d" stroke-width="6" stroke-linecap="round" stroke-linejoin="round"/><path d="M3-131l17 35 39 6-28 27 7 38-35-18-35 18 7-38-28-27 39-6z" fill="#c99b4f" stroke="#56483d" stroke-width="6" stroke-linejoin="round"/></g></g>
  </g>
</svg>
