<svg xmlns="http://www.w3.org/2000/svg" viewBox="0 0 1024 1024" fill="none" role="img" aria-label="Social Harmonizer Reflective Portrait">
  <defs>
    <filter id="softShadow" x="-20%" y="-20%" width="140%" height="140%">
      <feDropShadow dx="0" dy="14" stdDeviation="16" flood-color="#b7a48c" flood-opacity=".18"/>
    </filter>
  </defs>
  <rect width="1024" height="1024" rx="38" fill="#f6efe2"/>
  <path d="M88 151c142-58 272-71 414-38 136 31 252 10 429-34" stroke="#eadfca" stroke-width="36" stroke-linecap="round" opacity=".34"/>
  <path d="M82 851c162 35 298 29 428-15 149-51 268-37 423 20" stroke="#d0d7b7" stroke-width="42" stroke-linecap="round" opacity=".26"/>
  <circle cx="888" cy="408" r="1.4" fill="#d4c5aa" opacity=".22"/>
    <circle cx="145" cy="499" r="1.95" fill="#d4c5aa" opacity=".22"/>
    <circle cx="282" cy="590" r="2.5" fill="#d4c5aa" opacity=".22"/>
    <circle cx="419" cy="681" r="3.05" fill="#d4c5aa" opacity=".22"/>
    <circle cx="556" cy="772" r="1.4" fill="#d4c5aa" opacity=".22"/>
    <circle cx="693" cy="863" r="1.95" fill="#d4c5aa" opacity=".22"/>
    <circle cx="830" cy="114" r="2.5" fill="#d4c5aa" opacity=".22"/>
    <circle cx="87" cy="205" r="3.05" fill="#d4c5aa" opacity=".22"/>
    <circle cx="224" cy="296" r="1.4" fill="#d4c5aa" opacity=".22"/>
    <circle cx="361" cy="387" r="1.95" fill="#d4c5aa" opacity=".22"/>
    <circle cx="498" cy="478" r="2.5" fill="#d4c5aa" opacity=".22"/>
    <circle cx="635" cy="569" r="3.05" fill="#d4c5aa" opacity=".22"/>
    <circle cx="772" cy="660" r="1.4" fill="#d4c5aa" opacity=".22"/>
    <circle cx="909" cy="751" r="1.95" fill="#d4c5aa" opacity=".22"/>
    <circle cx="166" cy="842" r="2.5" fill="#d4c5aa" opacity=".22"/>
    <circle cx="303" cy="93" r="3.05" fill="#d4c5aa" opacity=".22"/>
    <circle cx="440" cy="184" r="1.4" fill="#d4c5aa" opacity=".22"/>
    <circle cx="577" cy="275" r="1.95" fill="#d4c5aa" opacity=".22"/>
  <g filter="url(#softShadow)">
    <ellipse cx="512" cy="856" rx="268" ry="40" fill="#d8c7aa" opacity=".34"/>
    <path d="M287 694c13-132 90-220 202-220h46c116 0 194 89 207 220l18 159H269l18-159z" fill="#d0d7b7" stroke="#56483d" stroke-width="8" stroke-linejoin="round"/>
    <g transform="translate(499 338) scale(1.56)">
    <path d="M-55-76c35-42 113-24 123 32 11 59-35 109-91 98-52-10-67-79-32-130z" fill="#eed4bd" stroke="#56483d" stroke-width="7" stroke-linejoin="round"/>
    <path d="M-58-66c11-49 84-74 126-25 22 25 22 56 12 79-21-34-68-34-104-24-11 3-26-8-34-30z" fill="#765f4c" stroke="#56483d" stroke-width="7" stroke-linejoin="round"/>
    <path d="M-20-74c-11 23-29 33-50 35" stroke="#56483d" stroke-width="5" stroke-linecap="round" opacity=".65"/>
    <path d="M8-73c-10 20-26 30-47 34" stroke="#56483d" stroke-width="5" stroke-linecap="round" opacity=".65"/>
    <circle cx="14" cy="-18" r="5.5" fill="#56483d"/>
    <path d="M31 1c8 9 18 12 30 9" stroke="#56483d" stroke-width="4" stroke-linecap="round"/>
    <path d="M8 25c19 12 39 10 55-4" stroke="#56483d" stroke-width="4" stroke-linecap="round" opacity=".72"/>
  </g>
    <path d="M386 612c47 33 76 68 98 124" stroke="#56483d" stroke-width="8" stroke-linecap="round" opacity=".54"/>
    <path d="M630 605c-42 32-70 69-90 131" stroke="#56483d" stroke-width="8" stroke-linecap="round" opacity=".54"/>
    <path d="M334 700c-61 35-86 76-75 122" stroke="#56483d" stroke-width="12" stroke-linecap="round"/>
    <path d="M680 700c62 35 88 76 77 122" stroke="#56483d" stroke-width="12" stroke-linecap="round"/>
    <circle cx="261" cy="821" r="18" fill="#eed4bd" stroke="#56483d" stroke-width="6"/>
    <circle cx="756" cy="821" r="18" fill="#eed4bd" stroke="#56483d" stroke-width="6"/>
    <g transform="translate(506 686) scale(1.28)"><g><path d="M-65-72h130l38 71-38 99H-65l-38-99z" fill="#d0d7b7" stroke="#56483d" stroke-width="6" stroke-linejoin="round"/><path d="M-52-72c16-32 88-32 104 0M-41 98c13 28 69 28 82 0" stroke="#56483d" stroke-width="6" stroke-linecap="round" stroke-linejoin="round"/><path d="M0-38c28 21 45 50 43 86-24 16-62 16-86 0-2-36 15-65 43-86z" fill="#879b72" opacity=".65" stroke="#56483d" stroke-width="6" stroke-linejoin="round"/><path d="M-122 133H122" stroke="#56483d" stroke-width="6" stroke-linecap="round" stroke-linejoin="round"/></g></g>
  </g>
</svg>
