<svg xmlns="http://www.w3.org/2000/svg" viewBox="0 0 1024 1024" fill="none" role="img" aria-label="Relational Protector Quiet Walk">
  <defs>
    <filter id="softShadow" x="-20%" y="-20%" width="140%" height="140%">
      <feDropShadow dx="0" dy="14" stdDeviation="16" flood-color="#b7a48c" flood-opacity=".18"/>
    </filter>
  </defs>
  <rect width="1024" height="1024" rx="38" fill="#f6efe2"/>
  <path d="M88 151c142-58 272-71 414-38 136 31 252 10 429-34" stroke="#eadfca" stroke-width="36" stroke-linecap="round" opacity=".34"/>
  <path d="M82 851c162 35 298 29 428-15 149-51 268-37 423 20" stroke="#c6d2bd" stroke-width="42" stroke-linecap="round" opacity=".26"/>
  <circle cx="761" cy="545" r="1.95" fill="#d4c5aa" opacity=".22"/>
    <circle cx="898" cy="636" r="2.5" fill="#d4c5aa" opacity=".22"/>
    <circle cx="155" cy="727" r="3.05" fill="#d4c5aa" opacity=".22"/>
    <circle cx="292" cy="818" r="1.4" fill="#d4c5aa" opacity=".22"/>
    <circle cx="429" cy="69" r="1.95" fill="#d4c5aa" opacity=".22"/>
    <circle cx="566" cy="160" r="2.5" fill="#d4c5aa" opacity=".22"/>
    <circle cx="703" cy="251" r="3.05" fill="#d4c5aa" opacity=".22"/>
    <circle cx="840" cy="342" r="1.4" fill="#d4c5aa" opacity=".22"/>
    <circle cx="97" cy="433" r="1.95" fill="#d4c5aa" opacity=".22"/>
    <circle cx="234" cy="524" r="2.5" fill="#d4c5aa" opacity=".22"/>
    <circle cx="371" cy="615" r="3.05" fill="#d4c5aa" opacity=".22"/>
    <circle cx="508" cy="706" r="1.4" fill="#d4c5aa" opacity=".22"/>
    <circle cx="645" cy="797" r="1.95" fill="#d4c5aa" opacity=".22"/>
    <circle cx="782" cy="888" r="2.5" fill="#d4c5aa" opacity=".22"/>
    <circle cx="919" cy="139" r="3.05" fill="#d4c5aa" opacity=".22"/>
    <circle cx="176" cy="230" r="1.4" fill="#d4c5aa" opacity=".22"/>
    <circle cx="313" cy="321" r="1.95" fill="#d4c5aa" opacity=".22"/>
    <circle cx="450" cy="412" r="2.5" fill="#d4c5aa" opacity=".22"/>
  <g filter="url(#softShadow)">
    <ellipse cx="508" cy="869" rx="238" ry="39" fill="#d8c7aa" opacity=".35"/>
    <g transform="translate(466 315) scale(1.28)">
    <path d="M-55-76c35-42 113-24 123 32 11 59-35 109-91 98-52-10-67-79-32-130z" fill="#eed4bd" stroke="#56483d" stroke-width="7" stroke-linejoin="round"/>
    <path d="M-58-66c11-49 84-74 126-25 22 25 22 56 12 79-21-34-68-34-104-24-11 3-26-8-34-30z" fill="#705c4b" stroke="#56483d" stroke-width="7" stroke-linejoin="round"/>
    <path d="M-20-74c-11 23-29 33-50 35" stroke="#56483d" stroke-width="5" stroke-linecap="round" opacity=".65"/>
    <path d="M8-73c-10 20-26 30-47 34" stroke="#56483d" stroke-width="5" stroke-linecap="round" opacity=".65"/>
    <circle cx="14" cy="-18" r="5.5" fill="#56483d"/>
    <path d="M31 1c8 9 18 12 30 9" stroke="#56483d" stroke-width="4" stroke-linecap="round"/>
    <path d="M8 25c19 12 39 10 55-4" stroke="#56483d" stroke-width="4" stroke-linecap="round" opacity=".72"/>
  </g>
    <path d="M358 502c38-82 167-88 216-15 31 46 35 136 22 247H337c-14-93-8-171 21-232z" fill="#c6d2bd" stroke="#56483d" stroke-width="7" stroke-linejoin="round"/>
    <path d="M423 733c-18 46-25 82-28 136M532 732c21 44 31 86 35 136" stroke="#56483d" stroke-width="10" stroke-linecap="round"/>
    <path d="M373 572c-61 30-101 63-121 112" stroke="#56483d" stroke-width="11" stroke-linecap="round"/>
    <path d="M574 568c62 18 111 45 148 83" stroke="#56483d" stroke-width="11" stroke-linecap="round"/>
    <circle cx="253" cy="686" r="17" fill="#eed4bd" stroke="#56483d" stroke-width="6"/>
    <circle cx="725" cy="652" r="17" fill="#eed4bd" stroke="#56483d" stroke-width="6"/>
    <g transform="translate(710 386) scale(1.32)"><g><path d="M-124 68c39-71 84-106 124-106s85 35 124 106" fill="#c6d2bd" stroke="#56483d" stroke-width="6" stroke-linejoin="round"/><path d="M-99 68c34-42 67-63 99-63s65 21 99 63" stroke="#56483d" stroke-width="6" stroke-linecap="round" stroke-linejoin="round"/><path d="M-118 108H118M-70 68v40M0 6v102M70 68v40" stroke="#56483d" stroke-width="6" stroke-linecap="round" stroke-linejoin="round"/><path d="M-26-68c12-18 39-18 52 0 14-18 42-13 49 8 8 29-35 54-75 82-40-28-83-53-75-82 7-21 35-26 49-8z" fill="#78906f" stroke="#56483d" stroke-width="6" stroke-linejoin="round"/></g></g>
  </g>
</svg>
