<svg xmlns="http://www.w3.org/2000/svg" viewBox="0 0 1024 1024" fill="none" role="img" aria-label="Pragmatic Reformer Quiet Walk">
  <defs>
    <filter id="softShadow" x="-20%" y="-20%" width="140%" height="140%">
      <feDropShadow dx="0" dy="14" stdDeviation="16" flood-color="#b7a48c" flood-opacity=".18"/>
    </filter>
  </defs>
  <rect width="1024" height="1024" rx="38" fill="#f6efe2"/>
  <path d="M88 151c142-58 272-71 414-38 136 31 252 10 429-34" stroke="#eadfca" stroke-width="36" stroke-linecap="round" opacity=".34"/>
  <path d="M82 851c162 35 298 29 428-15 149-51 268-37 423 20" stroke="#e3b39f" stroke-width="42" stroke-linecap="round" opacity=".26"/>
  <circle cx="517" cy="149" r="1.95" fill="#d4c5aa" opacity=".22"/>
    <circle cx="654" cy="240" r="2.5" fill="#d4c5aa" opacity=".22"/>
    <circle cx="791" cy="331" r="3.05" fill="#d4c5aa" opacity=".22"/>
    <circle cx="928" cy="422" r="1.4" fill="#d4c5aa" opacity=".22"/>
    <circle cx="185" cy="513" r="1.95" fill="#d4c5aa" opacity=".22"/>
    <circle cx="322" cy="604" r="2.5" fill="#d4c5aa" opacity=".22"/>
    <circle cx="459" cy="695" r="3.05" fill="#d4c5aa" opacity=".22"/>
    <circle cx="596" cy="786" r="1.4" fill="#d4c5aa" opacity=".22"/>
    <circle cx="733" cy="877" r="1.95" fill="#d4c5aa" opacity=".22"/>
    <circle cx="870" cy="128" r="2.5" fill="#d4c5aa" opacity=".22"/>
    <circle cx="127" cy="219" r="3.05" fill="#d4c5aa" opacity=".22"/>
    <circle cx="264" cy="310" r="1.4" fill="#d4c5aa" opacity=".22"/>
    <circle cx="401" cy="401" r="1.95" fill="#d4c5aa" opacity=".22"/>
    <circle cx="538" cy="492" r="2.5" fill="#d4c5aa" opacity=".22"/>
    <circle cx="675" cy="583" r="3.05" fill="#d4c5aa" opacity=".22"/>
    <circle cx="812" cy="674" r="1.4" fill="#d4c5aa" opacity=".22"/>
    <circle cx="949" cy="765" r="1.95" fill="#d4c5aa" opacity=".22"/>
    <circle cx="206" cy="856" r="2.5" fill="#d4c5aa" opacity=".22"/>
  <g filter="url(#softShadow)">
    <ellipse cx="508" cy="869" rx="238" ry="39" fill="#d8c7aa" opacity=".35"/>
    <g transform="translate(466 315) scale(1.28)">
    <path d="M-55-76c35-42 113-24 123 32 11 59-35 109-91 98-52-10-67-79-32-130z" fill="#eed4bd" stroke="#56483d" stroke-width="7" stroke-linejoin="round"/>
    <path d="M-58-66c11-49 84-74 126-25 22 25 22 56 12 79-21-34-68-34-104-24-11 3-26-8-34-30z" fill="#665143" stroke="#56483d" stroke-width="7" stroke-linejoin="round"/>
    <path d="M-20-74c-11 23-29 33-50 35" stroke="#56483d" stroke-width="5" stroke-linecap="round" opacity=".65"/>
    <path d="M8-73c-10 20-26 30-47 34" stroke="#56483d" stroke-width="5" stroke-linecap="round" opacity=".65"/>
    <circle cx="14" cy="-18" r="5.5" fill="#56483d"/>
    <path d="M31 1c8 9 18 12 30 9" stroke="#56483d" stroke-width="4" stroke-linecap="round"/>
    <path d="M8 25c19 12 39 10 55-4" stroke="#56483d" stroke-width="4" stroke-linecap="round" opacity=".72"/>
  </g>
    <path d="M358 502c38-82 167-88 216-15 31 46 35 136 22 247H337c-14-93-8-171 21-232z" fill="#e3b39f" stroke="#56483d" stroke-width="7" stroke-linejoin="round"/>
    <path d="M423 733c-18 46-25 82-28 136M532 732c21 44 31 86 35 136" stroke="#56483d" stroke-width="10" stroke-linecap="round"/>
    <path d="M373 572c-61 30-101 63-121 112" stroke="#56483d" stroke-width="11" stroke-linecap="round"/>
    <path d="M574 568c62 18 111 45 148 83" stroke="#56483d" stroke-width="11" stroke-linecap="round"/>
    <circle cx="253" cy="686" r="17" fill="#eed4bd" stroke="#56483d" stroke-width="6"/>
    <circle cx="725" cy="652" r="17" fill="#eed4bd" stroke="#56483d" stroke-width="6"/>
    <g transform="translate(710 386) scale(1.32)"><g><path d="M-102 34l78-78 34 34-78 78c-18 18-45-9-34-34z" fill="#b76f62" stroke="#56483d" stroke-width="6" stroke-linejoin="round"/><path d="M48-98c38-12 75 23 65 61L78-72 49-43 84-8c-38 10-73-27-61-65z" fill="#e3b39f" stroke="#56483d" stroke-width="6" stroke-linejoin="round"/><path d="M-1 22l86 86" stroke="#56483d" stroke-width="6" stroke-linecap="round" stroke-linejoin="round"/><path d="M-110 107h220" stroke="#56483d" stroke-width="6" stroke-linecap="round" stroke-linejoin="round"/></g></g>
  </g>
</svg>
