<svg xmlns="http://www.w3.org/2000/svg" viewBox="0 0 1024 1024" fill="none" role="img" aria-label="Balanced Integrator Quiet Walk">
  <defs>
    <filter id="softShadow" x="-20%" y="-20%" width="140%" height="140%">
      <feDropShadow dx="0" dy="14" stdDeviation="16" flood-color="#b7a48c" flood-opacity=".18"/>
    </filter>
  </defs>
  <rect width="1024" height="1024" rx="38" fill="#f6efe2"/>
  <path d="M88 151c142-58 272-71 414-38 136 31 252 10 429-34" stroke="#eadfca" stroke-width="36" stroke-linecap="round" opacity=".34"/>
  <path d="M82 851c162 35 298 29 428-15 149-51 268-37 423 20" stroke="#e8d4a8" stroke-width="42" stroke-linecap="round" opacity=".26"/>
  <circle cx="114" cy="482" r="2.5" fill="#d4c5aa" opacity=".22"/>
    <circle cx="251" cy="573" r="3.05" fill="#d4c5aa" opacity=".22"/>
    <circle cx="388" cy="664" r="1.4" fill="#d4c5aa" opacity=".22"/>
    <circle cx="525" cy="755" r="1.95" fill="#d4c5aa" opacity=".22"/>
    <circle cx="662" cy="846" r="2.5" fill="#d4c5aa" opacity=".22"/>
    <circle cx="799" cy="97" r="3.05" fill="#d4c5aa" opacity=".22"/>
    <circle cx="936" cy="188" r="1.4" fill="#d4c5aa" opacity=".22"/>
    <circle cx="193" cy="279" r="1.95" fill="#d4c5aa" opacity=".22"/>
    <circle cx="330" cy="370" r="2.5" fill="#d4c5aa" opacity=".22"/>
    <circle cx="467" cy="461" r="3.05" fill="#d4c5aa" opacity=".22"/>
    <circle cx="604" cy="552" r="1.4" fill="#d4c5aa" opacity=".22"/>
    <circle cx="741" cy="643" r="1.95" fill="#d4c5aa" opacity=".22"/>
    <circle cx="878" cy="734" r="2.5" fill="#d4c5aa" opacity=".22"/>
    <circle cx="135" cy="825" r="3.05" fill="#d4c5aa" opacity=".22"/>
    <circle cx="272" cy="76" r="1.4" fill="#d4c5aa" opacity=".22"/>
    <circle cx="409" cy="167" r="1.95" fill="#d4c5aa" opacity=".22"/>
    <circle cx="546" cy="258" r="2.5" fill="#d4c5aa" opacity=".22"/>
    <circle cx="683" cy="349" r="3.05" fill="#d4c5aa" opacity=".22"/>
  <g filter="url(#softShadow)">
    <ellipse cx="508" cy="869" rx="238" ry="39" fill="#d8c7aa" opacity=".35"/>
    <g transform="translate(466 315) scale(1.28)">
    <path d="M-55-76c35-42 113-24 123 32 11 59-35 109-91 98-52-10-67-79-32-130z" fill="#eed4bd" stroke="#56483d" stroke-width="7" stroke-linejoin="round"/>
    <path d="M-58-66c11-49 84-74 126-25 22 25 22 56 12 79-21-34-68-34-104-24-11 3-26-8-34-30z" fill="#7b6652" stroke="#56483d" stroke-width="7" stroke-linejoin="round"/>
    <path d="M-20-74c-11 23-29 33-50 35" stroke="#56483d" stroke-width="5" stroke-linecap="round" opacity=".65"/>
    <path d="M8-73c-10 20-26 30-47 34" stroke="#56483d" stroke-width="5" stroke-linecap="round" opacity=".65"/>
    <circle cx="14" cy="-18" r="5.5" fill="#56483d"/>
    <path d="M31 1c8 9 18 12 30 9" stroke="#56483d" stroke-width="4" stroke-linecap="round"/>
    <path d="M8 25c19 12 39 10 55-4" stroke="#56483d" stroke-width="4" stroke-linecap="round" opacity=".72"/>
  </g>
    <path d="M358 502c38-82 167-88 216-15 31 46 35 136 22 247H337c-14-93-8-171 21-232z" fill="#e8d4a8" stroke="#56483d" stroke-width="7" stroke-linejoin="round"/>
    <path d="M423 733c-18 46-25 82-28 136M532 732c21 44 31 86 35 136" stroke="#56483d" stroke-width="10" stroke-linecap="round"/>
    <path d="M373 572c-61 30-101 63-121 112" stroke="#56483d" stroke-width="11" stroke-linecap="round"/>
    <path d="M574 568c62 18 111 45 148 83" stroke="#56483d" stroke-width="11" stroke-linecap="round"/>
    <circle cx="253" cy="686" r="17" fill="#eed4bd" stroke="#56483d" stroke-width="6"/>
    <circle cx="725" cy="652" r="17" fill="#eed4bd" stroke="#56483d" stroke-width="6"/>
    <g transform="translate(710 386) scale(1.32)"><g><path d="M0-112v204M-74 92H74M-118 129H118" stroke="#56483d" stroke-width="6" stroke-linecap="round" stroke-linejoin="round"/><path d="M-90-47H90" stroke="#56483d" stroke-width="6" stroke-linecap="round" stroke-linejoin="round"/><path d="M-90-47l-45 87h90zM90-47L45 40h90z" fill="#e8d4a8" stroke="#56483d" stroke-width="6" stroke-linejoin="round"/><circle cx="0" cy="-47" r="18" fill="#c7a35b" stroke="#56483d" stroke-width="6" stroke-linejoin="round"/><path d="M-43 92h86" stroke="#56483d" stroke-width="6" stroke-linecap="round" stroke-linejoin="round"/></g></g>
  </g>
</svg>
