<svg xmlns="http://www.w3.org/2000/svg" viewBox="0 0 1024 1024" fill="none" role="img" aria-label="Care-Centered Pragmatist Table Study">
  <defs>
    <filter id="softShadow" x="-20%" y="-20%" width="140%" height="140%">
      <feDropShadow dx="0" dy="14" stdDeviation="16" flood-color="#b7a48c" flood-opacity=".18"/>
    </filter>
  </defs>
  <rect width="1024" height="1024" rx="38" fill="#f6efe2"/>
  <path d="M88 151c142-58 272-71 414-38 136 31 252 10 429-34" stroke="#eadfca" stroke-width="36" stroke-linecap="round" opacity=".34"/>
  <path d="M82 851c162 35 298 29 428-15 149-51 268-37 423 20" stroke="#c9d5bc" stroke-width="42" stroke-linecap="round" opacity=".26"/>
  <circle cx="549" cy="397" r="1.95" fill="#d4c5aa" opacity=".22"/>
    <circle cx="686" cy="488" r="2.5" fill="#d4c5aa" opacity=".22"/>
    <circle cx="823" cy="579" r="3.05" fill="#d4c5aa" opacity=".22"/>
    <circle cx="80" cy="670" r="1.4" fill="#d4c5aa" opacity=".22"/>
    <circle cx="217" cy="761" r="1.95" fill="#d4c5aa" opacity=".22"/>
    <circle cx="354" cy="852" r="2.5" fill="#d4c5aa" opacity=".22"/>
    <circle cx="491" cy="103" r="3.05" fill="#d4c5aa" opacity=".22"/>
    <circle cx="628" cy="194" r="1.4" fill="#d4c5aa" opacity=".22"/>
    <circle cx="765" cy="285" r="1.95" fill="#d4c5aa" opacity=".22"/>
    <circle cx="902" cy="376" r="2.5" fill="#d4c5aa" opacity=".22"/>
    <circle cx="159" cy="467" r="3.05" fill="#d4c5aa" opacity=".22"/>
    <circle cx="296" cy="558" r="1.4" fill="#d4c5aa" opacity=".22"/>
    <circle cx="433" cy="649" r="1.95" fill="#d4c5aa" opacity=".22"/>
    <circle cx="570" cy="740" r="2.5" fill="#d4c5aa" opacity=".22"/>
    <circle cx="707" cy="831" r="3.05" fill="#d4c5aa" opacity=".22"/>
    <circle cx="844" cy="82" r="1.4" fill="#d4c5aa" opacity=".22"/>
    <circle cx="101" cy="173" r="1.95" fill="#d4c5aa" opacity=".22"/>
    <circle cx="238" cy="264" r="2.5" fill="#d4c5aa" opacity=".22"/>
  <g filter="url(#softShadow)">
    <ellipse cx="513" cy="857" rx="294" ry="42" fill="#d8c7aa" opacity=".38"/>
    <rect x="244" y="646" width="536" height="48" rx="24" fill="#d1ad82" stroke="#56483d" stroke-width="7"/>
    <path d="M394 694v122M634 694v122" stroke="#56483d" stroke-width="8" stroke-linecap="round"/>
    <g transform="translate(421 370) scale(1.32)">
    <path d="M-55-76c35-42 113-24 123 32 11 59-35 109-91 98-52-10-67-79-32-130z" fill="#eed4bd" stroke="#56483d" stroke-width="7" stroke-linejoin="round"/>
    <path d="M-58-66c11-49 84-74 126-25 22 25 22 56 12 79-21-34-68-34-104-24-11 3-26-8-34-30z" fill="#7a6552" stroke="#56483d" stroke-width="7" stroke-linejoin="round"/>
    <path d="M-20-74c-11 23-29 33-50 35" stroke="#56483d" stroke-width="5" stroke-linecap="round" opacity=".65"/>
    <path d="M8-73c-10 20-26 30-47 34" stroke="#56483d" stroke-width="5" stroke-linecap="round" opacity=".65"/>
    <circle cx="14" cy="-18" r="5.5" fill="#56483d"/>
    <path d="M31 1c8 9 18 12 30 9" stroke="#56483d" stroke-width="4" stroke-linecap="round"/>
    <path d="M8 25c19 12 39 10 55-4" stroke="#56483d" stroke-width="4" stroke-linecap="round" opacity=".72"/>
  </g>
    <path d="M340 535c31-77 126-107 194-49 44 38 59 99 52 181H303c-8-53 4-98 37-132z" fill="#c9d5bc" stroke="#56483d" stroke-width="7" stroke-linejoin="round"/>
    <path d="M485 520c36 25 58 60 71 105" stroke="#56483d" stroke-width="6" stroke-linecap="round" opacity=".55"/>
    <path d="M337 612c-49 6-78 18-101 45" stroke="#56483d" stroke-width="10" stroke-linecap="round"/>
    <path d="M582 606c49 14 86 28 121 48" stroke="#56483d" stroke-width="10" stroke-linecap="round"/>
    <circle cx="246" cy="656" r="17" fill="#eed4bd" stroke="#56483d" stroke-width="6"/>
    <circle cx="704" cy="655" r="17" fill="#eed4bd" stroke="#56483d" stroke-width="6"/>
    <g transform="translate(614 570) scale(1.1)"><g><path d="M-104 26c37-48 91-50 125 0 34-50 88-48 125 0-32 57-76 89-125 118-49-29-93-61-125-118z" fill="#8d9d7d" opacity=".6" stroke="#56483d" stroke-width="6" stroke-linejoin="round"/><path d="M-55-82h110v78H-55z" fill="#fff8ea" stroke="#56483d" stroke-width="6" stroke-linejoin="round"/><path d="M0-62v37M-19-43h38" stroke="#56483d" stroke-width="6" stroke-linecap="round" stroke-linejoin="round"/></g></g>
  </g>
</svg>
