<svg xmlns="http://www.w3.org/2000/svg" viewBox="0 0 512 512" fill="none" aria-hidden="true">
  <rect width="512" height="512" fill="#e6eef7"/>
  <g transform="translate(8,24)">
    <!-- shoulders -->
    <path fill="#1a2f4f" d="M32 392h200c-8-24-4-48 16-64 24-20 56-28 88-24-40 4-76 32-88 68-28 8-52 28-68 52-20 28-32 60-36 92H32v-104z"/>
    <!-- neck -->
    <path fill="#1a2f4f" d="M108 328h52c6-28 22-52 48-64v-8c-26 12-42 36-48 64 6-12 18-20 32-20s26 8 32 20c-6-28-22-52-48-64v8c26 12 42 36 48 64h-84z" opacity="0"/>
    <path fill="#1a2f4f" d="M118 360h40v32h-40v-32z"/>
    <!-- head + hair + beard (profile facing right) -->
    <path fill="#1a2f4f" d="M108 360V280c0-72 36-132 96-152 4-40 40-72 84-76 42-4 78 26 84 66 20 6 36 20 48 38 10 18 14 38 12 58-4 24-16 46-36 60 8 28-4 56-30 70-26 16-58 20-88 8-26-10-52-28-68-52-6 2-12 2-18 0-24 14-50 16-76 6-28-12-46-36-48-64 2-20 12-38 28-52 18-14 40-20 62-16 22 4 40 18 50 38 8-14 12-32 10-50-2-20-12-38-28-48-18-12-42-14-64-4-24 10-38 32-40 56-2 18 8 34 24 44z"/>
    <!-- simplified: single clean profile silhouette -->
    <path fill="#1a2f4f" d="M96 368c0-80 32-148 96-168 6-44 46-78 92-82 48-4 90 30 96 76 24 8 42 26 54 48 12 22 16 46 12 70-6 30-24 56-50 70-28 16-62 20-94 8-28-12-54-32-70-56-6 2-12 2-18 0-24 14-52 16-78 6-28-12-46-36-48-64 2-20 12-38 28-52z"/>
    <!-- forehead & skull -->
    <path fill="#1a2f4f" d="M120 200c20-48 68-84 124-84 32 0 60 14 80 40 12 16 18 36 16 56-2 24-14 46-32 60-8 6-18 10-28 10-20 0-38-10-50-26-14-18-18-42-16-66 2-20 12-38 28-50-16 12-26 30-28 50-2 18 6 34 22 44-18-10-30-28-32-48-2-16 4-32 16-44 12-12 28-18 44-16 14 2 26 10 34 22 8 12 10 28 6 42-6 18-20 32-38 36-20 4-40-4-54-20-12-16-16-38-10-56 6-20 22-36 42-40 22-4 44 6 58 24 12 16 16 38 10 56-8 24-28 42-52 44-26 2-50-12-64-32-12-18-14-42-8-62 6-22 24-40 46-44 24-4 48 8 62 28 12 18 14 42 8 60-8 22-28 38-52 38-26 0-48-16-58-40-8-18-6-40 6-58 14-22 38-36 64-36 28 0 52 16 64 42 10 20 10 44-2 64-14 24-40 40-68 40z" opacity="0"/>
    <path fill="#1a2f4f" d="M132 188c16-44 58-72 108-72 46 0 84 32 94 76 4 18 0 38-12 54-10 14-26 24-44 28-6 26-28 46-56 46s-50-20-56-46c-18-4-34-14-44-28-12-16-16-36-12-54 10-44 48-76 94-76 50 0 92 28 108 72z"/>
    <!-- nose (profile) -->
    <path fill="#1a2f4f" d="M248 200c18 2 34 16 38 36 2 12-4 24-14 30-6 4-14 4-20 0 10-14 10-32 0-46-6-8-16-12-28-10 4-6 12-10 22-10 2 0 4 0 6 0z"/>
    <!-- eye -->
    <ellipse cx="208" cy="196" rx="12" ry="9" fill="#e6eef7" transform="rotate(-10 208 196)"/>
    <!-- mouth / chin line -->
    <path fill="#e6eef7" d="M228 248c8 10 20 14 32 10 6-2 12-8 14-14-8 12-22 18-36 14-14-4-24-16-26-30-2-8 2-16 8-22 6-6 14-8 22-6-8 4-14 12-14 22 0 10 6 18 16 22 10 4 22 0 28-10 6-10 6-22 0-32-6-10-18-14-30-10z"/>
    <!-- beard texture -->
    <path fill="none" stroke="#e6eef7" stroke-width="4.5" stroke-linecap="round" d="M148 268c20 18 44 30 72 32M140 300c24 14 52 20 80 14M134 332c28 10 58 8 84-4"/>
    <!-- hair curls -->
    <path fill="none" stroke="#e6eef7" stroke-width="5" stroke-linecap="round" d="M156 152c16-12 36-16 56-12M144 176c14-6 32-8 48-4M136 200c12-4 28-4 40 4"/>
  </g>
  <path fill="#1a2f4f" d="M268 88c84 0 152 68 152 152v80c0 18-14 32-32 32h-32l-54 48 22-48H270c-18 0-32-14-32-32v-80c0-84 68-152 152-152z"/>
  <circle cx="324" cy="196" r="12" fill="#e6eef7"/>
  <circle cx="364" cy="196" r="12" fill="#e6eef7"/>
  <circle cx="404" cy="196" r="12" fill="#e6eef7"/>
</svg>
