<svg xmlns="http://www.w3.org/2000/svg" viewBox="0 0 512 512" fill="none" aria-hidden="true">
  <rect width="512" height="512" fill="#e6eef7"/>
  <path fill="#1a2f4f" d="M68 124c0-34 86-60 188-60s188 26 188 60v180c0 24-20 44-44 44h-38l-58 50 22-50H112c-24 0-44-20-44-44V124z"/>
  <!-- Frontal human head + beard + shoulders -->
  <path fill="#1a2f4f" d="M256 116c-58 0-106 42-114 98-4 28 4 56 22 78 14 18 34 30 56 34-8 32 12 64 44 80 16 10 36 14 56 12 20-2 40-8 56-18 32-16 52-48 44-80 22-4 42-16 56-34 18-22 26-50 22-78-8-56-56-98-114-98z"/>
  <path fill="#1a2f4f" d="M160 372c34 20 72 30 112 26 40-4 76-22 100-48 8 28 4 58-12 84-20 30-54 48-92 48s-72-18-92-48c-16-26-20-56-12-84 24 26 60 44 100 48 40 4 78-6 112-26-30 18-64 28-100 28s-70-10-100-28z"/>
  <path fill="#e6eef7" d="M256 148c-42 0-76 32-80 74-2 18 4 36 16 50 10 12 26 20 42 20h44c16 0 32-8 42-20 12-14 18-32 16-50-4-42-38-74-80-74z"/>
  <ellipse cx="216" cy="218" rx="15" ry="19" fill="#e6eef7"/>
  <ellipse cx="296" cy="218" rx="15" ry="19" fill="#e6eef7"/>
  <path fill="#e6eef7" d="M256 238c-7 0-12 5-12 12v5c0 4 3 8 7 9 3-5 9-9 16-9h-2c7 0 13 4 16 9 4-1 7-5 7-9v-5c0-7-5-12-12-12-4 0-7 2-9 6-2-4-5-6-9-6z"/>
  <path fill="#e6eef7" d="M224 284c14 18 34 28 56 28h-48c22 0 42-10 56-28 8 12 22 20 38 22-14 14-34 22-54 22s-40-8-54-22c16-2 30-10 38-22z"/>
  <path fill="none" stroke="#e6eef7" stroke-width="4.5" stroke-linecap="round" d="M192 164c12-14 28-20 44-18M320 164c-12-14-28-20-44-18"/>
  <path fill="none" stroke="#e6eef7" stroke-width="4" stroke-linecap="round" d="M204 186c10-6 22-8 34-6M308 186c-10-6-22-8-34-6"/>
  <path fill="none" stroke="#e6eef7" stroke-width="3.5" stroke-linecap="round" d="M208 308c16 12 34 18 54 18s38-6 54-18M202 330c20 8 40 10 60 8M196 352c24 6 48 4 70-4"/>
</svg>
