<svg xmlns="http://www.w3.org/2000/svg" viewBox="0 0 512 512" fill="none" aria-hidden="true">
  <rect width="512" height="512" fill="#e6eef7"/>
  <!-- Profile bust (Roman / Greek side view) -->
  <path fill="#1a2f4f" d="M44 420V300c0-2 8-90 68-148 16-18 38-32 66-38 10-42 50-74 100-78 54-4 100 32 106 82 28 8 50 26 64 48 14 24 18 50 14 76-4 28-18 54-40 70 10 30-2 62-28 78-30 18-68 22-102 10-30-12-58-32-76-58-8 2-16 2-24 0-28 16-60 18-90 6-32-14-52-42-54-72 2-24 14-46 32-60z"/>
  <path fill="#1a2f4f" d="M252 156c22 0 40 16 44 38 3 14-3 30-16 38-8 6-18 6-26 2 12-16 12-38 0-54-8-10-22-14-36-10 6-8 16-12 28-12 2 0 4 0 6 0z"/>
  <ellipse cx="210" cy="148" rx="13" ry="10" fill="#e6eef7" transform="rotate(-8 210 148)"/>
  <path fill="#e6eef7" d="M268 188c6 12 2 28-10 36-4 3-10 4-14 2 10-10 14-26 8-40-4-8-12-12-22-10-6 1-12 5-14 11-2 6 0 12 4 18 4 8 12 10 20 4 8-6 12-16 10-24-2-8-8-14-16-16-8-2-16 2-22 8-6 6-8 14-6 22 2 8 8 14 16 16z"/>
  <path fill="none" stroke="#e6eef7" stroke-width="5" stroke-linecap="round" d="M118 118c18-12 40-16 62-10M100 148c16-6 34-8 52-4M88 178c14-4 30-4 44 4"/>
  <path fill="none" stroke="#e6eef7" stroke-width="4.5" stroke-linecap="round" d="M92 268c22 20 50 34 82 36M84 306c26 16 58 24 90 18M78 344c32 12 66 10 96-2"/>
  <path fill="#1a2f4f" d="M276 84c84 0 152 68 152 152v80c0 18-14 32-32 32h-32l-54 48 22-48H278c-18 0-32-14-32-32v-80c0-84 68-152 152-152z"/>
  <circle cx="332" cy="196" r="12" fill="#e6eef7"/>
  <circle cx="372" cy="196" r="12" fill="#e6eef7"/>
  <circle cx="412" cy="196" r="12" fill="#e6eef7"/>
</svg>
