<svg xmlns="http://www.w3.org/2000/svg" viewBox="0 0 512 512" fill="none" aria-hidden="true">
  <rect width="512" height="512" fill="#e6eef7"/>
  <path fill="#1a2f4f" d="M80 168c0-38 74-68 168-68h16c94 0 168 30 168 68v100c0 16-12 28-28 28h-22l-42 38 18-38h-20c-16 0-28-12-28-28V168z"/>
  <circle cx="204" cy="224" r="10" fill="#e6eef7"/>
  <circle cx="256" cy="224" r="10" fill="#e6eef7"/>
  <circle cx="308" cy="224" r="10" fill="#e6eef7"/>
  <!-- Left bust facing right -->
  <path fill="#1a2f4f" d="M16 416V312c0-76 40-140 108-162 6-42 42-74 86-78 44-4 82 26 88 66 26 10 46 30 56 54 10 20 12 42 8 64-6 26-20 50-40 64 8 26-4 54-26 68-24 18-56 26-86 22-26-4-52-18-70-38-6 2-12 2-18 0-22 12-46 14-68 4-24-10-38-32-40-56 2-18 12-34 26-46z"/>
  <path fill="#1a2f4f" d="M152 188c14 2 28 12 34 28 3 10 0 22-8 30-5 5-12 7-18 4 7-11 7-26-2-38-5-7-14-10-24-8 4-7 10-12 18-14 4-1 8 0 12 2z"/>
  <ellipse cx="132" cy="172" rx="10" ry="7" fill="#e6eef7" transform="rotate(-8 132 172)"/>
  <path fill="none" stroke="#e6eef7" stroke-width="3.5" stroke-linecap="round" d="M88 138c12-8 26-10 40-8M76 158c10-4 22-6 34-4M68 180c8-3 18-4 28-1"/>
  <path fill="none" stroke="#e6eef7" stroke-width="3" stroke-linecap="round" d="M64 262c16 14 34 24 56 26M58 290c20 10 42 14 64 10"/>
  <!-- Right bust facing left -->
  <g transform="translate(512,0) scale(-1,1)">
    <path fill="#1a2f4f" d="M16 416V312c0-76 40-140 108-162 6-42 42-74 86-78 44-4 82 26 88 66 26 10 46 30 56 54 10 20 12 42 8 64-6 26-20 50-40 64 8 26-4 54-26 68-24 18-56 26-86 22-26-4-52-18-70-38-6 2-12 2-18 0-22 12-46 14-68 4-24-10-38-32-40-56 2-18 12-34 26-46z"/>
    <path fill="#1a2f4f" d="M152 188c14 2 28 12 34 28 3 10 0 22-8 30-5 5-12 7-18 4 7-11 7-26-2-38-5-7-14-10-24-8 4-7 10-12 18-14 4-1 8 0 12 2z"/>
  </g>
  <ellipse cx="380" cy="172" rx="10" ry="7" fill="#e6eef7" transform="rotate(8 380 172)"/>
  <path fill="none" stroke="#e6eef7" stroke-width="3.5" stroke-linecap="round" d="M424 138c-12-8-26-10-40-8M436 158c-10-4-22-6-34-4M444 180c-8-3-18-4-28-1"/>
  <path fill="none" stroke="#e6eef7" stroke-width="3" stroke-linecap="round" d="M448 262c-16 14-34 24-56 26M454 290c-20 10-42 14-64 10"/>
</svg>
