<svg xmlns="http://www.w3.org/2000/svg" viewBox="0 0 512 512" fill="none" aria-hidden="true">
  <rect width="512" height="512" fill="#ffffff"/>
  <!-- The Thinker: chin on fist, hunched torso, rock seat -->
  <path fill="#1e1c18" d="M64 408c28-24 64-40 104-40h20c-6-44 28-82 72-88 48-6 90 32 96 78 12 2 24 8 34 16 28 24 40 60 36 96 16 4 32 12 44 24 20 18 30 46 30 74v48H64V408z"/>
  <path fill="#1e1c18" d="M188 372c-6-52 10-100 48-136 12-10 26-18 42-20-8-38 28-70 68-74 44-4 82 28 86 70 2 16-2 32-12 46 16 6 30 18 38 34 16 28 20 60 12 92-6 28-22 52-44 64-20 12-44 16-68 10-26-6-50-20-66-40-6-8-12-18-16-28z"/>
  <path fill="#1e1c18" d="M236 196c24-6 46 8 52 32 4 18-6 36-24 44-8 4-18 4-26 0 12-18 14-40 4-58-8-12-22-18-36-16 6-8 12-14 18-18z"/>
  <path fill="#1e1c18" d="M256 168c18 8 32 26 32 46 0 18-12 34-28 40-8 4-18 4-26 0 12-16 14-38 6-54-6-12-18-18-32-16 8-10 18-16 30-16z"/>
  <path fill="#1e1c18" d="M140 292c-14-6-26-18-30-32-4-16 4-32 18-42 12-10 28-12 42-4-12 18-10 38 2 50 10 12 24 18 40 16-10 8-20 14-32 14-10 0-20-4-28-10 8 14 22 24 38 28 16 4 34 0 48-10z"/>
  <path fill="#1e1c18" d="M124 360c22 10 46 12 70 4 20-8 38-24 48-44 10 26 30 46 56 54 24 8 50 8 74 0v36H124v-50z"/>
  <path fill="#1e1c18" d="M216 120c-10-36 22-64 58-68 38-4 72 24 76 62 2 14-2 28-10 40 12 8 22 20 24 36 2 16-8 30-22 38-10 22-30 38-54 42-26 4-52-8-64-30-8-14-10-32-4-48 6-16 20-28 38-32-10-16-6-36 12-48 12-10 28-12 42-4-12-20-6-44 14-56 18-10 40-8 54 8 12 12 18 32 16 50-2 16-10 30-20 40z"/>
  <ellipse cx="252" cy="168" rx="9" ry="6" fill="#ffffff" transform="rotate(-12 252 168)"/>
  <path fill="none" stroke="#ffffff" stroke-width="4" stroke-linecap="round" d="M228 188c10 8 22 10 34 6"/>
  <path fill="none" stroke="#ffffff" stroke-width="5" stroke-linecap="round" d="M176 252c16 10 34 14 52 12M168 284c20 8 42 10 64 4"/>
  <path fill="none" stroke="#ffffff" stroke-width="5" stroke-linecap="round" d="M292 108l20-32M308 96l26-24M324 104l22-36"/>
  <path fill="#1e1c18" d="M324 80c60 0 108 48 108 108v54c0 14-12 26-26 26h-20l-38 34 14-34h-18c-14 0-26-12-26-26v-54c0-60 48-108 108-108z"/>
  <circle cx="364" cy="152" r="9" fill="#ffffff"/>
  <circle cx="388" cy="152" r="9" fill="#ffffff"/>
  <circle cx="412" cy="152" r="9" fill="#ffffff"/>
</svg>
