<svg xmlns="http://www.w3.org/2000/svg" viewBox="0 0 1024 1024" fill="none" role="img" aria-label="Principled Realist - Editorial Side Profile">
  <defs>
    <filter id="softShadow" x="-20%" y="-20%" width="140%" height="140%">
      <feDropShadow dx="0" dy="16" stdDeviation="18" flood-color="#a98d73" flood-opacity=".18"/>
    </filter>
  </defs>
  <rect width="1024" height="1024" rx="38" fill="#f6efe2"/>
  <path d="M92 143c138-52 280-68 415-35 143 35 260 11 425-31" stroke="#eadfca" stroke-width="34" stroke-linecap="round" opacity=".34"/>
  <path d="M78 848c148 34 290 29 421-15 154-51 280-37 448 23" stroke="#e4b7a4" stroke-width="42" stroke-linecap="round" opacity=".25"/>
  <circle cx="203" cy="196" r="3" fill="#d3c3aa" opacity=".25"/>
  <circle cx="784" cy="220" r="2.5" fill="#d3c3aa" opacity=".25"/>
  <circle cx="827" cy="739" r="3" fill="#d3c3aa" opacity=".25"/>
  <circle cx="164" cy="687" r="2.5" fill="#d3c3aa" opacity=".25"/>
  <g filter="url(#softShadow)">
    <ellipse cx="514" cy="872" rx="250" ry="38" fill="#d8c7aa" opacity=".34"/>
    <path d="M379 431h72c-7 39-5 68 9 96h-90c12-32 15-65 9-96z" fill="#edd3bd" stroke="#57483d" stroke-width="7" stroke-linejoin="round"/>
    <g transform="translate(417 343) scale(1.22)">
    <path d="M-68-66c37-48 119-34 139 20 19 52-17 112-77 119-50 6-84-34-80-82 1-22 7-40 18-57z" fill="#edd3bd" stroke="#57483d" stroke-width="7" stroke-linejoin="round"/>
    <path d="M-70-58c15-54 88-84 134-38 25 25 24 58 10 81-16-25-47-36-85-27-30 7-49 1-59-16z" fill="#6e5948" stroke="#57483d" stroke-width="7" stroke-linejoin="round"/>
    <path d="M3-70c-9 20-28 32-57 37" stroke="#57483d" stroke-width="5" stroke-linecap="round" opacity=".6"/>
    <circle cx="27" cy="-16" r="5.5" fill="#57483d"/>
    <path d="M51 3c12 6 21 7 32 2" stroke="#57483d" stroke-width="4" stroke-linecap="round"/>
    <path d="M24 34c17 9 36 8 53-3" stroke="#57483d" stroke-width="4" stroke-linecap="round" opacity=".72"/>
  </g>
    <path d="M342 512c33-65 129-88 197-44 56 36 84 116 78 256H328c-10-92-6-162 14-212z" fill="#d9aa98" stroke="#57483d" stroke-width="7" stroke-linejoin="round"/>
    <path d="M410 724c-20 50-29 96-31 146M531 723c23 48 35 93 39 146" stroke="#57483d" stroke-width="10" stroke-linecap="round"/>
    <path d="M358 582c-61 30-101 67-126 116" stroke="#57483d" stroke-width="11" stroke-linecap="round"/>
    <path d="M584 565c51-2 98 16 140 53" stroke="#57483d" stroke-width="11" stroke-linecap="round"/>
    <circle cx="233" cy="700" r="18" fill="#edd3bd" stroke="#57483d" stroke-width="6"/>
    <circle cx="725" cy="619" r="18" fill="#edd3bd" stroke="#57483d" stroke-width="6"/>
    <g transform="translate(715 390)">
      <path d="M-98-111H97V91H-98z" fill="#fff8ea" stroke="#57483d" stroke-width="7" stroke-linejoin="round"/>
      <path d="M-63-60H61M-63-17H75M-63 26H38" stroke="#57483d" stroke-width="6" stroke-linecap="round"/>
      <path d="M-108 111H108" stroke="#57483d" stroke-width="7" stroke-linecap="round"/>
      <circle cx="60" cy="41" r="37" fill="#b87866" opacity=".42" stroke="#57483d" stroke-width="6"/>
      <path d="M84 66l43 43" stroke="#57483d" stroke-width="6" stroke-linecap="round"/>
    </g>
    <path d="M314 503c-24 80-20 153 12 220" stroke="#fff3e1" stroke-width="18" stroke-linecap="round" opacity=".35"/>
  </g>
</svg>
