<svg xmlns="http://www.w3.org/2000/svg" viewBox="0 0 1024 1024" fill="none" role="img" aria-label="Principled Realist - Soft Paper Portrait">
  <defs>
    <filter id="softShadow" x="-20%" y="-20%" width="140%" height="140%">
      <feDropShadow dx="0" dy="16" stdDeviation="18" flood-color="#a98d73" flood-opacity=".18"/>
    </filter>
  </defs>
  <rect width="1024" height="1024" rx="38" fill="#f6efe2"/>
  <path d="M92 143c138-52 280-68 415-35 143 35 260 11 425-31" stroke="#eadfca" stroke-width="34" stroke-linecap="round" opacity=".34"/>
  <path d="M78 848c148 34 290 29 421-15 154-51 280-37 448 23" stroke="#e4b7a4" stroke-width="42" stroke-linecap="round" opacity=".25"/>
  <circle cx="203" cy="196" r="3" fill="#d3c3aa" opacity=".25"/>
  <circle cx="784" cy="220" r="2.5" fill="#d3c3aa" opacity=".25"/>
  <circle cx="827" cy="739" r="3" fill="#d3c3aa" opacity=".25"/>
  <circle cx="164" cy="687" r="2.5" fill="#d3c3aa" opacity=".25"/>
  <g filter="url(#softShadow)">
    <ellipse cx="512" cy="858" rx="278" ry="42" fill="#d8c7aa" opacity=".35"/>
    <path d="M451 449h96c-7 48-3 86 13 117H438c16-34 21-73 13-117z" fill="#edd3bd" stroke="#57483d" stroke-width="7" stroke-linejoin="round"/>
    <path d="M283 676c17-130 99-218 211-218h41c113 0 197 88 212 218l19 171H264l19-171z" fill="#e4b7a4" stroke="#57483d" stroke-width="8" stroke-linejoin="round"/>
    <g transform="translate(497 340) scale(1.5)">
    <path d="M-58-74c37-43 118-27 130 31 12 61-36 113-95 101-54-11-71-80-35-132z" fill="#edd3bd" stroke="#57483d" stroke-width="7" stroke-linejoin="round"/>
    <path d="M-62-61c15-52 90-75 131-25 21 25 21 54 10 76-22-31-65-34-103-23-15 4-30-7-38-28z" fill="#6e5948" stroke="#57483d" stroke-width="7" stroke-linejoin="round"/>
    <path d="M-30-74c-8 23-26 34-50 39M0-75c-8 19-24 30-47 36" stroke="#57483d" stroke-width="5" stroke-linecap="round" opacity=".62"/>
    <circle cx="-8" cy="-15" r="5.5" fill="#57483d"/>
    <circle cx="35" cy="-13" r="5.5" fill="#57483d"/>
    <path d="M21 4c8 9 18 12 30 9" stroke="#57483d" stroke-width="4" stroke-linecap="round"/>
    <path d="M-4 37c19 13 42 12 60-5" stroke="#57483d" stroke-width="4" stroke-linecap="round" opacity=".72"/>
  </g>
    <path d="M380 611c41 38 70 82 90 139M634 609c-42 39-70 84-91 141" stroke="#57483d" stroke-width="8" stroke-linecap="round" opacity=".48"/>
    <g transform="translate(512 687) scale(1.18)">
      <path d="M-74-102H42l48 48v156H-74z" fill="#fff8ea" stroke="#57483d" stroke-width="6" stroke-linejoin="round"/>
      <path d="M42-102v48h48" stroke="#57483d" stroke-width="6" stroke-linecap="round" stroke-linejoin="round"/>
      <path d="M-37-36h72M-37 2h90M-37 40h58" stroke="#57483d" stroke-width="6" stroke-linecap="round"/>
      <path d="M-91 132H91" stroke="#57483d" stroke-width="6" stroke-linecap="round"/>
      <circle cx="63" cy="61" r="37" fill="#b87866" opacity=".45" stroke="#57483d" stroke-width="6"/>
      <path d="M88 87l38 38" stroke="#57483d" stroke-width="6" stroke-linecap="round"/>
    </g>
    <path d="M329 715c-57 38-82 78-72 123" stroke="#57483d" stroke-width="12" stroke-linecap="round"/>
    <path d="M692 715c58 38 83 78 73 123" stroke="#57483d" stroke-width="12" stroke-linecap="round"/>
    <circle cx="258" cy="837" r="18" fill="#edd3bd" stroke="#57483d" stroke-width="6"/>
    <circle cx="764" cy="837" r="18" fill="#edd3bd" stroke="#57483d" stroke-width="6"/>
  </g>
</svg>
