<svg xmlns="http://www.w3.org/2000/svg" viewBox="0 0 512 512" fill="none" aria-hidden="true">
  <!-- Style 5: duotone geometric  two colors only; abstract structure / building motif -->
  <rect width="512" height="512" rx="32" fill="#faf8f5"/>
  <g fill="#1e3a5f">
    <circle cx="256" cy="128" r="48"/>
    <rect x="208" y="168" width="96" height="120" rx="20"/>
    <rect x="232" y="272" width="48" height="88" rx="12"/>
    <rect x="312" y="296" width="64" height="64" rx="10"/>
    <rect x="296" y="224" width="64" height="64" rx="10"/>
    <rect x="280" y="152" width="64" height="64" rx="10"/>
    <path d="M288 152h48l24-36h-96l24 36z"/>
    <circle cx="120" cy="104" r="20" opacity=".25"/>
    <circle cx="392" cy="88" r="14" opacity=".2"/>
    <rect x="96" y="368" width="48" height="48" rx="8" opacity=".18"/>
    <rect x="368" y="384" width="40" height="40" rx="8" opacity=".15"/>
  </g>
  <g fill="#dbeafe">
    <circle cx="240" cy="124" r="6"/>
    <circle cx="272" cy="124" r="6"/>
    <rect x="248" y="200" width="16" height="56" rx="4"/>
    <rect x="336" y="312" width="16" height="32" rx="4"/>
    <rect x="320" y="240" width="16" height="32" rx="4"/>
    <rect x="304" y="168" width="16" height="32" rx="4"/>
  </g>
</svg>
