<svg xmlns="http://www.w3.org/2000/svg" viewBox="0 0 512 512" fill="none" aria-hidden="true">
  <!-- Style 3: icon glyph  single silhouette + one accent (profile scroll / chat icon family) -->
  <rect width="512" height="512" rx="32" fill="#f4f6f8"/>
  <path fill="#2f3d4c" d="M196 120c-48 0-88 36-88 84 0 26 12 50 32 66-36 20-60 54-60 94v52h232v-52c0-40-24-74-60-94 20-16 32-40 32-66 0-48-40-84-88-84z"/>
  <path d="M168 196c0 14 12 26 28 26s28-12 28-26" stroke="#d8e0e8" stroke-width="5" stroke-linecap="round"/>
  <path d="M188 248c16 12 40 12 56 0" stroke="#d8e0e8" stroke-width="4" stroke-linecap="round"/>
  <rect x="288" y="248" width="88" height="88" rx="12" fill="#5a6b7d"/>
  <rect x="272" y="160" width="88" height="88" rx="12" fill="#5a6b7d"/>
  <rect x="256" y="72" width="88" height="88" rx="12" fill="#5a6b7d"/>
  <path d="M268 72h72l36-48H232l36 48z" fill="#7dd3fc"/>
  <path d="M300 120h24M300 152h20M300 184h16" stroke="#e8ecf1" stroke-width="3" stroke-linecap="round" opacity=".35"/>
</svg>
